<svg width="138" height="65" viewBox="0 0 138 65" fill="none" xmlns="http://www.w3.org/2000/svg">
<path d="M79.152 44.324C77.4 44.324 75.888 43.94 74.616 43.172C73.344 42.404 72.36 41.336 71.664 39.968C70.992 38.576 70.656 36.968 70.656 35.144C70.656 33.752 70.848 32.504 71.232 31.4C71.616 30.296 72.18 29.36 72.924 28.592C73.668 27.8 74.556 27.2 75.588 26.792C76.644 26.384 77.832 26.18 79.152 26.18C80.016 26.18 80.916 26.312 81.852 26.576C82.788 26.84 83.64 27.296 84.408 27.944C84.648 28.112 84.804 28.316 84.876 28.556C84.948 28.796 84.948 29.036 84.876 29.276C84.804 29.492 84.684 29.684 84.516 29.852C84.348 29.996 84.132 30.08 83.868 30.104C83.628 30.128 83.376 30.044 83.112 29.852C82.488 29.372 81.852 29.036 81.204 28.844C80.556 28.652 79.932 28.556 79.332 28.556C78.396 28.556 77.58 28.712 76.884 29.024C76.188 29.312 75.6 29.732 75.12 30.284C74.64 30.836 74.268 31.52 74.004 32.336C73.764 33.152 73.644 34.1 73.644 35.18C73.644 37.268 74.136 38.924 75.12 40.148C76.104 41.348 77.508 41.948 79.332 41.948C79.932 41.948 80.544 41.852 81.168 41.66C81.816 41.468 82.464 41.132 83.112 40.652C83.376 40.46 83.628 40.376 83.868 40.4C84.108 40.424 84.312 40.52 84.48 40.688C84.648 40.832 84.756 41.024 84.804 41.264C84.876 41.504 84.876 41.744 84.804 41.984C84.732 42.2 84.576 42.392 84.336 42.56C83.568 43.184 82.728 43.64 81.816 43.928C80.904 44.192 80.016 44.324 79.152 44.324ZM95.3205 44.324C93.6165 44.324 92.1405 43.952 90.8925 43.208C89.6445 42.464 88.6725 41.42 87.9765 40.076C87.3045 38.708 86.9685 37.1 86.9685 35.252C86.9685 33.86 87.1605 32.612 87.5445 31.508C87.9285 30.38 88.4925 29.42 89.2365 28.628C89.9805 27.836 90.8565 27.236 91.8645 26.828C92.8965 26.396 94.0485 26.18 95.3205 26.18C97.0245 26.18 98.5005 26.552 99.7485 27.296C100.997 28.04 101.957 29.096 102.629 30.464C103.325 31.808 103.673 33.404 103.673 35.252C103.673 36.644 103.481 37.892 103.097 38.996C102.713 40.1 102.149 41.06 101.405 41.876C100.661 42.668 99.7725 43.28 98.7405 43.712C97.7325 44.12 96.5925 44.324 95.3205 44.324ZM95.3205 41.984C96.4005 41.984 97.3485 41.72 98.1645 41.192C98.9805 40.664 99.6045 39.896 100.037 38.888C100.493 37.88 100.721 36.668 100.721 35.252C100.721 33.068 100.229 31.4 99.2445 30.248C98.2845 29.096 96.9765 28.52 95.3205 28.52C94.2165 28.52 93.2565 28.784 92.4405 29.312C91.6485 29.816 91.0245 30.572 90.5685 31.58C90.1365 32.564 89.9205 33.788 89.9205 35.252C89.9205 37.412 90.4125 39.08 91.3965 40.256C92.3805 41.408 93.6885 41.984 95.3205 41.984ZM109.528 44.252C109.048 44.252 108.676 44.12 108.412 43.856C108.172 43.592 108.052 43.22 108.052 42.74V27.728C108.052 27.248 108.172 26.888 108.412 26.648C108.652 26.384 109 26.252 109.456 26.252C109.912 26.252 110.26 26.384 110.5 26.648C110.764 26.888 110.896 27.248 110.896 27.728V30.644H110.536C110.92 29.228 111.652 28.136 112.732 27.368C113.812 26.6 115.144 26.192 116.728 26.144C117.088 26.12 117.376 26.204 117.592 26.396C117.808 26.564 117.928 26.864 117.952 27.296C117.976 27.704 117.88 28.028 117.664 28.268C117.448 28.508 117.112 28.652 116.656 28.7L116.08 28.772C114.448 28.916 113.188 29.444 112.3 30.356C111.436 31.244 111.004 32.468 111.004 34.028V42.74C111.004 43.22 110.872 43.592 110.608 43.856C110.368 44.12 110.008 44.252 109.528 44.252ZM128.628 44.324C126.78 44.324 125.184 43.964 123.84 43.244C122.52 42.5 121.488 41.456 120.744 40.112C120.024 38.768 119.664 37.16 119.664 35.288C119.664 33.464 120.024 31.88 120.744 30.536C121.464 29.168 122.448 28.1 123.696 27.332C124.968 26.564 126.432 26.18 128.088 26.18C129.264 26.18 130.32 26.384 131.256 26.792C132.192 27.176 132.984 27.74 133.632 28.484C134.304 29.228 134.808 30.128 135.144 31.184C135.504 32.24 135.684 33.428 135.684 34.748C135.684 35.132 135.576 35.42 135.36 35.612C135.144 35.78 134.832 35.864 134.424 35.864H121.896V33.956H133.74L133.164 34.424C133.164 33.128 132.972 32.036 132.588 31.148C132.204 30.236 131.64 29.54 130.896 29.06C130.176 28.58 129.264 28.34 128.16 28.34C126.936 28.34 125.892 28.628 125.028 29.204C124.188 29.756 123.552 30.536 123.12 31.544C122.688 32.528 122.472 33.68 122.472 35V35.216C122.472 37.424 123 39.104 124.056 40.256C125.136 41.408 126.66 41.984 128.628 41.984C129.444 41.984 130.248 41.876 131.04 41.66C131.856 41.444 132.648 41.084 133.416 40.58C133.752 40.364 134.052 40.268 134.316 40.292C134.604 40.292 134.832 40.376 135 40.544C135.168 40.688 135.276 40.88 135.324 41.12C135.396 41.336 135.372 41.576 135.252 41.84C135.156 42.104 134.952 42.332 134.64 42.524C133.848 43.1 132.912 43.544 131.832 43.856C130.752 44.168 129.684 44.324 128.628 44.324Z" fill="#363A53"/>
<circle cx="32.5" cy="32.5" r="32.5" fill="#363A53"/>
<path d="M8.592 44.252C8.208 44.252 7.896 44.168 7.656 44C7.44 43.808 7.308 43.568 7.26 43.28C7.236 42.968 7.308 42.62 7.476 42.236L17.376 19.7C17.592 19.22 17.844 18.884 18.132 18.692C18.444 18.476 18.78 18.368 19.14 18.368C19.5 18.368 19.824 18.476 20.112 18.692C20.424 18.884 20.676 19.22 20.868 19.7L30.804 42.236C30.996 42.62 31.068 42.968 31.02 43.28C30.996 43.592 30.876 43.832 30.66 44C30.444 44.168 30.144 44.252 29.76 44.252C29.328 44.252 28.98 44.144 28.716 43.928C28.452 43.688 28.236 43.352 28.068 42.92L25.404 36.764L26.844 37.52H11.364L12.84 36.764L10.212 42.92C9.996 43.376 9.768 43.712 9.528 43.928C9.288 44.144 8.976 44.252 8.592 44.252ZM19.104 22.076L13.308 35.72L12.444 35.036H25.764L24.972 35.72L19.176 22.076H19.104ZM36.4386 44.252C35.9586 44.252 35.5866 44.12 35.3226 43.856C35.0826 43.592 34.9626 43.22 34.9626 42.74V27.728C34.9626 27.248 35.0826 26.888 35.3226 26.648C35.5626 26.384 35.9106 26.252 36.3666 26.252C36.8226 26.252 37.1706 26.384 37.4106 26.648C37.6746 26.888 37.8066 27.248 37.8066 27.728V30.644H37.4466C37.8306 29.228 38.5626 28.136 39.6426 27.368C40.7226 26.6 42.0546 26.192 43.6386 26.144C43.9986 26.12 44.2866 26.204 44.5026 26.396C44.7186 26.564 44.8386 26.864 44.8626 27.296C44.8866 27.704 44.7906 28.028 44.5746 28.268C44.3586 28.508 44.0226 28.652 43.5666 28.7L42.9906 28.772C41.3586 28.916 40.0986 29.444 39.2106 30.356C38.3466 31.244 37.9146 32.468 37.9146 34.028V42.74C37.9146 43.22 37.7826 43.592 37.5186 43.856C37.2786 44.12 36.9186 44.252 36.4386 44.252ZM55.8341 44.324C54.4661 44.324 53.3141 44.084 52.3781 43.604C51.4661 43.1 50.7821 42.38 50.3261 41.444C49.8701 40.484 49.6421 39.32 49.6421 37.952V28.772H47.2301C46.8221 28.772 46.5101 28.676 46.2941 28.484C46.0781 28.268 45.9701 27.98 45.9701 27.62C45.9701 27.26 46.0781 26.984 46.2941 26.792C46.5101 26.6 46.8221 26.504 47.2301 26.504H49.6421V22.364C49.6421 21.884 49.7741 21.524 50.0381 21.284C50.3021 21.02 50.6621 20.888 51.1181 20.888C51.5741 20.888 51.9221 21.02 52.1621 21.284C52.4261 21.524 52.5581 21.884 52.5581 22.364V26.504H57.0941C57.5021 26.504 57.8141 26.6 58.0301 26.792C58.2461 26.984 58.3541 27.26 58.3541 27.62C58.3541 27.98 58.2461 28.268 58.0301 28.484C57.8141 28.676 57.5021 28.772 57.0941 28.772H52.5581V37.664C52.5581 39.032 52.8461 40.076 53.4221 40.796C53.9981 41.492 54.9341 41.84 56.2301 41.84C56.6861 41.84 57.0701 41.792 57.3821 41.696C57.7181 41.6 57.9941 41.552 58.2101 41.552C58.4261 41.528 58.6061 41.6 58.7501 41.768C58.8941 41.936 58.9661 42.224 58.9661 42.632C58.9661 42.92 58.9061 43.184 58.7861 43.424C58.6901 43.664 58.5101 43.832 58.2461 43.928C57.9581 44.024 57.5741 44.108 57.0941 44.18C56.6381 44.276 56.2181 44.324 55.8341 44.324Z" fill="white"/>
</svg>
